PathFileType	4	(X/Y/Z)	C:/Users/beibeiliu/ov580/test_trc/User1\sequence.26_training_dense_right.trc
DataRate	CameraRate	NumFrames	NumMarkers	Units	OrigDataRate	OrigDataStartFrame	OrigNumFrames
120	120	20	19	mm	120	1	83
Frame#	Time	ThumbCMC			ThumbMCP			ThumbIP			ThumbTip			IndexMCP			IndexPIP			IndexTip			MiddleMCP			MiddlePIP			MiddleTip			RingMCP			RingPIP			RingTip			PinkyMCP			PinkyPIP			PinkyTip			BackHand1			BackHand2			BackHand3	
		X0	Y0	Z0	X1	Y1	Z1	X2	Y2	Z2	X3	Y3	Z3	X4	Y4	Z4	X5	Y5	Z5	X6	Y6	Z6	X7	Y7	Z7	X8	Y8	Z8	X9	Y9	Z9	X10	Y10	Z10	X11	Y11	Z11	X12	Y12	Z12	X13	Y13	Z13	X14	Y14	Z14	X15	Y15	Z15	X16	Y16	Z16	X17	Y17	Z17	X18	Y18	Z18	
0	0	104.183	4.7053	97.8503	80.15	-15.6825	74.4456	73.0957	-28.4598	48.7663	67.8854	-42.1182	30.0457	126.739	11.3818	14.8686	125.166	-3.68149	-14.5955	119.208	-20.4197	-32.1517	158.331	6.33787	12.1894	156.143	-1.4256	-19.1506	154.001	-24.0285	-44.9169	175.386	-3.499	22.0091	179.774	-10.1772	-9.49485	177.195	-29.7195	-32.5787	185.484	-22.6788	40.0571	193.404	-28.1584	17.0996	195.324	-34.7786	-6.6339	169.817	3.37982	75.1707	170.509	10.4435	109.66	139.992	22.765	89.7011	
1	0.00833333	102.371	5.43271	92.303	84.0231	-15.1513	75.2401	75.1455	-27.9415	46.8419	64.9096	-42.3237	31.4633	126.84	10.6296	14.5514	124.338	-1.58605	-15.5834	122.028	-25.1464	-33.7942	155.199	7.64105	12.2734	155.608	-3.27457	-22.9325	153.67	-25.1917	-46.7464	173.824	-1.87972	19.3163	183.269	-11.0805	-6.25889	175.571	-28.3488	-32.5706	184.632	-22.7583	40.7554	193.544	-28.3508	16.1366	190.492	-34.4553	-9.57228	169.379	3.10587	75.1857	170.113	9.61637	109.12	139.95	24.1344	86.1051	
2	0.0166667	100.451	6.72014	97.5029	83.9674	-14.7183	72.8439	72.8779	-26.776	47.6573	67.4195	-40.3468	30.2338	126.706	10.8805	14.0996	123.391	1.03545	-12.4899	122.736	-22.4884	-31.5774	155.428	7.88858	7.22515	154.639	-2.19981	-22.6691	152.226	-26.2311	-47.289	175.315	-2.97961	20.8668	178.637	-8.85674	-6.96496	174.921	-28.1745	-31.1761	184.928	-20.9486	39.445	192.495	-27.8618	18.758	191.244	-32.2817	-6.15543	169.919	3.56365	74.0816	172.951	9.71398	106.495	141.481	24.3785	87.6586	
3	0.025	98.9459	6.7115	94.8198	80.4262	-14.0983	75.5252	72.8314	-26.5173	46.5628	64.4383	-41.1762	29.3961	123.637	12.6059	15.682	121.79	-1.41768	-15.4787	122.286	-23.7366	-32.4098	157.536	6.67863	10.0814	156.495	-4.59779	-22.7533	152.797	-26.6022	-44.8602	173.416	-1.06923	19.0012	178.448	-10.2016	-10.9387	172.141	-27.6494	-31.9843	183.646	-20.6268	40.6248	190.453	-25.9815	20.2893	190.489	-33.8315	-9.81049	167.258	6.57414	73.9643	169.895	8.56513	109.273	136.989	24.8444	84.2224	
4	0.0333333	97.5725	7.68113	93.478	80.9969	-13.9025	74.5999	71.4892	-25.8573	48.0569	65.0858	-41.1841	28.7999	124.951	11.5849	12.3317	121.671	1.43036	-13.3864	121.722	-23.0301	-31.5408	152.261	9.33056	12.6059	153.326	-3.78381	-22.7347	149.669	-23.2381	-44.6853	170.919	-2.21696	23.6345	174.893	-9.25783	-11.677	171.494	-27.8811	-33.768	183.591	-22.1777	43.2352	190.297	-26.7316	15.5037	189.021	-34.9725	-9.64565	166.738	5.3887	77.2387	172.677	9.05169	109.364	141.135	22.6823	88.4295	
5	0.0416667	97.7767	7.4221	92.3999	82.4831	-13.7945	74.1241	72.5942	-25.62	52.4832	64.8403	-39.842	32.3007	121.307	13.1248	13.4108	124.236	-1.58215	-14.3887	115.45	-21.2352	-35.2248	153.746	8.45674	12.4268	155.356	-2.4221	-19.9093	148.497	-21.8928	-43.5326	170.367	-0.756319	19.7645	177.718	-8.94636	-8.79482	169.703	-25.0952	-30.4406	185.053	-22.2622	39.5263	188.288	-25.16	18.4782	190.605	-35.036	-11.4232	169.934	3.38232	74.3758	169.391	9.54869	106.05	140.485	23.2319	84.2154	
6	0.05	99.7559	6.8669	94.1506	78.4813	-12.0802	75.6444	67.8924	-24.3754	49.695	60.7495	-39.5531	32.5519	122.11	13.4354	13.9705	119.281	1.8864	-15.1775	119.667	-21.8989	-32.6832	150.936	10.6437	11.073	152.142	-0.832268	-19.9084	147.433	-22.7818	-44.5334	173.614	-1.48381	20.6899	177.616	-9.25008	-8.62465	171.879	-26.2203	-30.115	181.633	-20.739	41.7329	190.721	-28.2611	16.9594	189.416	-35.5275	-11.2003	166.706	6.71575	77.2033	166.936	10.8967	108.477	137.849	24.1444	85.3037	
7	0.0583333	98.1714	7.13345	98.9551	78.9022	-12.1152	75.699	69.1314	-23.8514	51.0597	61.2126	-38.1732	30.6033	120.061	15.0792	13.6815	120.823	-0.701878	-15.1614	116.471	-21.8112	-34.9425	151.965	8.66362	9.88841	151.133	-1.97724	-20.8033	148.086	-26.6229	-46.9634	173.318	-2.51022	20.18	177.491	-10.3217	-9.45246	168.85	-24.2491	-30.6734	181.395	-20.5509	43.14	187.842	-25.2131	19.9154	190.687	-33.158	-9.06749	166.479	7.90638	73.0062	167.777	11.3949	110.51	135.741	25.9354	88.6123	
8	0.0666667	100.677	5.94881	94.7009	78.5534	-12.7842	76.6666	70.8847	-23.9102	53.3199	60.9685	-38.317	33.5517	120.636	13.3221	13.5439	119.047	1.95751	-14.0992	117.416	-18.7706	-31.1312	151.74	8.7445	11.504	150.645	-3.92145	-22.163	146.103	-21.7867	-42.3382	169.074	-0.419905	23.7121	173.647	-7.5984	-7.11184	168.574	-26.5865	-32.7727	182.322	-20.4879	41.4903	185.717	-25.0886	17.0683	189.996	-33.2345	-6.16276	169.757	5.96204	74.9155	170.378	9.31729	107.617	138.154	23.2982	89.9002	
9	0.075	97.5371	8.11352	99.7267	77.4832	-12.856	76.4787	68.5829	-23.2786	53.5745	60.2055	-37.5339	31.9247	121.903	14.2124	14.299	116.871	5.28072	-10.8471	114.095	-19.6515	-32.3194	148.53	11.3407	8.65869	149.35	-2.43564	-21.911	144.251	-20.3766	-43.4902	168.913	-0.333712	23.5601	171.441	-6.41584	-7.30419	166.152	-24.0047	-31.5101	183.141	-20.9812	41.4549	185.903	-24.4161	17.4054	184.897	-28.9759	-8.69613	163.264	6.11557	77.1871	169.29	8.97279	106.499	139.877	24.7537	90.8238	
10	0.0833333	99.8422	8.32086	96.4851	75.2697	-11.0779	74.2161	65.3739	-23.6886	51.7708	61.0601	-38.1034	30.9489	119.561	16.4154	17.5722	116.231	3.42178	-14.2355	117.354	-18.6042	-30.5421	150.104	9.81482	10.103	152.181	-0.983925	-18.4768	145.3	-22.1773	-42.7954	170.397	-0.893194	20.1211	172.401	-7.16133	-8.07051	166.274	-24.2308	-31.2253	182.498	-21.9094	41.2216	184.575	-24.3082	17.4685	183.93	-30.4515	-11.6588	163.358	6.5214	78.8434	168.255	11.174	110.434	137.676	23.2416	91.0367	
11	0.0916667	97.8261	8.43554	100.711	80.5068	-10.7048	76.275	67.1457	-22.6034	48.4038	59.2863	-37.0836	28.793	117.881	17.0108	15.0528	118.369	3.83745	-13.377	113.941	-18.804	-32.3795	147.18	12.1421	12.9706	150.129	-0.0606564	-20.1445	142.141	-19.5712	-44.2238	169.493	0.363281	20.9397	172.827	-7.47326	-7.52791	164.22	-24.7237	-32.4945	178.576	-18.416	37.2787	185.121	-24.8333	14.5547	184.632	-31.5936	-9.87917	165.443	6.42143	73.7986	167.088	10.8194	108.81	134.034	25.6628	86.9237	
12	0.1	95.4025	10.5123	99.4789	78.947	-9.47668	75.7234	67.9659	-20.8409	53.385	59.5184	-33.9346	32.6631	117.897	19.5182	12.7744	118.59	5.3718	-13.0339	112.176	-12.7737	-30.0044	147.66	13.7398	8.08371	150.421	-1.71314	-21.3973	143.494	-21.0122	-43.0741	168.328	2.06202	19.7067	173.476	-8.11627	-10.3617	163.289	-22.0697	-32.7558	180.862	-18.1906	38.3666	183.304	-22.7922	15.8005	181.367	-29.6274	-10.0285	164.293	10.0058	75.1723	166.279	10.9721	108.012	135.096	28.5498	90.7281	
13	0.108333	99.7621	10.1919	96.3271	78.1229	-9.3806	74.7892	69.7449	-19.5133	51.133	59.7261	-33.5493	33.7498	121.02	18.3717	16.142	120.139	6.18875	-12.9962	112.601	-16.0103	-34.1399	151.871	12.6392	13.0709	151.362	1.92804	-18.5436	143.893	-21.8878	-45.1264	171.471	1.53599	19.1485	169.459	-3.40077	-8.86341	166.571	-20.7615	-29.5972	181.734	-18.6225	41.8636	185.212	-24.2549	14.6333	181.487	-27.5826	-7.8097	163.766	9.61795	78.0002	167.118	12.0086	106.724	134.917	29.5416	90.5727	
14	0.116667	97.5032	10.0824	96.174	74.6878	-9.22002	76.6285	68.14	-19.7204	51.1634	59.5496	-34.049	27.7245	118.911	19.6545	12.0014	118.872	4.51538	-14.6692	111.882	-13.5899	-32.5549	147.451	13.9538	10.4987	151.276	2.02449	-17.9178	142.687	-20.3121	-44.612	171.411	0.888502	20.8472	172.193	-5.91926	-11.8768	164.362	-22.9002	-33.654	179.792	-18.4704	41.1931	188.112	-23.6305	18.2386	183.246	-29.6506	-11.3212	166.376	7.42722	76.4631	165.344	13.0712	108.635	134.857	26.9955	86.7383	
15	0.125	96.5637	10.3314	95.818	77.7225	-10.5015	75.6282	67.434	-20.8457	51.8233	60.8612	-34.574	31.8508	118.65	18.7695	13.0253	116.443	4.67055	-14.902	111.305	-14.1218	-33.1834	149.141	11.7077	8.61231	147.162	1.0315	-21.9565	142.196	-18.6165	-44.3082	167.617	2.31343	19.2381	175.339	-6.52319	-7.56349	167.192	-24.0396	-32.5192	180.966	-19.401	40.6206	186.965	-24.6462	17.8624	183.838	-29.3484	-9.7986	168.571	6.95752	77.6272	169.924	11.086	106.651	135.839	25.717	90.3014	
16	0.133333	100.263	8.01842	97.0149	76.6496	-10.7427	74.6742	70.6628	-21.6875	47.9933	61.4934	-35.882	29.4039	118.987	17.3253	12.2115	115.879	5.34987	-13.9542	114.274	-18.5232	-34.0418	148.616	12.5025	11.7195	148.2	1.37065	-19.3657	146.585	-21.8105	-42.4669	167.212	0.822385	23.5972	171.7	-7.40986	-10.701	164.753	-24.1705	-33.931	181.033	-20.2418	42.8089	184.457	-25.4027	14.7147	182.603	-30.1526	-11.4077	167.058	7.37484	77.9545	169.983	10.6967	110.064	137.025	24.2784	91.1352	
17	0.141667	97.3919	9.76813	95.3638	79.6613	-11.3897	71.824	67.2697	-21.7023	51.2733	60.3603	-34.6745	32.0672	120.987	16.2218	11.892	118.612	3.66631	-14.2789	114.075	-17.2381	-31.9587	150.744	10.152	8.74124	149.469	-1.53048	-22.2676	142.255	-20.6225	-45.492	166.783	2.22717	19.689	172.633	-8.96682	-12.5601	163.374	-22.2797	-32.4529	179.596	-18.6727	37.6719	184.851	-25.3997	13.8386	187.2	-30.1635	-9.91343	168.025	7.22048	76.9231	169.376	11.1054	111.191	134.154	25.9968	90.3308	
18	0.15	94.7671	11.4267	99.6189	77.5523	-9.45582	72.5333	65.7053	-20.8259	52.2356	58.0371	-34.3212	30.449	117.446	19.0791	14.4136	118.204	6.62093	-11.9728	115.005	-18.2194	-33.7522	148.068	13.4894	7.66453	150.367	1.23274	-18.1883	145.175	-22.8941	-44.6357	170.281	0.724211	23.8913	172.239	-4.09646	-8.1534	163.891	-22.0602	-32.6905	179.059	-18.1589	41.6961	184.031	-23.695	13.7706	185.247	-29.4573	-7.35835	163.576	9.76479	75.2144	164.902	11.2534	108.841	136.669	26.8053	89.6215	
19	0.158333	95.0247	12.1328	96.7443	79.5491	-8.64897	72.2107	69.0351	-19.8504	52.8267	58.7872	-33.8429	31.2472	117.377	19.0946	17.2327	116.269	7.6353	-12.2704	110.866	-12.0336	-31.4627	151.694	11.6549	9.30318	149.258	0.988976	-20.0886	142.501	-20.7386	-45.5884	169.65	2.40876	19.7064	169.625	-2.8179	-10.2056	162.793	-22.6104	-34.025	176.93	-17.5164	42.3022	184.605	-22.602	17.3559	181.397	-26.5615	-11.7782	163.194	10.5486	73.679	167.26	12.3964	106.577	137.039	27.0893	91.941	
